<svg width="767" height="193" viewBox="0 0 767 193" fill="none" xmlns="http://www.w3.org/2000/svg">
<path d="M194.2 54.732C178.907 54.732 171.26 69.4827 171.26 98.984V110.676C171.26 124.687 173.283 135.688 177.328 143.68C181.373 151.573 187.343 155.52 195.236 155.52C206.089 155.52 216.055 144.963 225.132 123.848H227.796L226.76 156.852H225.132C224.54 155.767 223.997 155.027 223.504 154.632C223.011 154.139 222.271 153.892 221.284 153.892C220.396 153.892 216.844 154.681 210.628 156.26C204.412 157.74 198.097 158.48 191.684 158.48C175.601 158.48 163.12 154.139 154.24 145.456C145.459 136.773 141.068 123.749 141.068 106.384C141.068 88.92 145.656 75.452 154.832 65.98C164.107 56.508 176.539 51.772 192.128 51.772C198.147 51.772 204.017 52.5613 209.74 54.14C215.561 55.62 218.965 56.36 219.952 56.36C220.939 56.36 221.679 56.1627 222.172 55.768C222.665 55.2747 223.208 54.4853 223.8 53.4H225.428L226.612 85.516H223.948C219.508 75.5507 214.92 67.9533 210.184 62.724C205.547 57.396 200.219 54.732 194.2 54.732ZM274.184 122.22H278.476V110.824C278.476 101.451 277.933 95.1853 276.848 92.028C275.861 88.772 273.888 87.144 270.928 87.144C269.152 87.144 267.524 87.6373 266.044 88.624C264.662 89.512 263.972 90.7947 263.972 92.472C263.972 94.0507 264.268 95.6787 264.86 97.356H268.56C269.349 99.428 269.744 101.944 269.744 104.904C269.744 107.765 268.51 110.281 266.044 112.452C263.577 114.524 260.469 115.56 256.72 115.56C248.234 115.56 243.992 111.465 243.992 103.276C243.992 91.14 254.302 85.072 274.924 85.072C286.665 85.072 294.756 87.0947 299.196 91.14C303.734 95.0867 306.004 102.388 306.004 113.044V143.088C306.004 148.219 307.434 150.784 310.296 150.784C313.65 150.784 315.624 145.703 316.216 135.54L318.436 135.688C318.041 144.371 316.413 150.34 313.552 153.596C310.69 156.852 306.004 158.48 299.492 158.48C287.652 158.48 280.844 154.829 279.068 147.528C277.785 151.277 275.861 154.04 273.296 155.816C270.73 157.592 266.981 158.48 262.048 158.48C247.445 158.48 240.144 152.511 240.144 140.572C240.144 133.567 242.906 128.781 248.432 126.216C254.056 123.552 262.64 122.22 274.184 122.22ZM268.264 140.424C268.264 145.555 268.51 148.86 269.004 150.34C269.596 151.82 270.632 152.56 272.112 152.56C273.69 152.56 275.121 151.327 276.404 148.86C277.785 146.295 278.476 142.792 278.476 138.352V124.588H277.44C271.322 124.588 268.264 129.077 268.264 138.056V140.424ZM372.465 117.188C372.465 107.025 371.972 100.217 370.985 96.764C369.998 93.212 368.074 91.436 365.213 91.436C362.352 91.436 359.786 93.3107 357.517 97.06C355.248 100.711 354.113 105.644 354.113 111.86V138.944C354.113 143.187 354.952 146.788 356.629 149.748C358.306 152.708 360.773 154.188 364.029 154.188C367.285 154.188 369.505 152.017 370.689 147.676C371.873 143.335 372.465 135.737 372.465 124.884V117.188ZM353.817 86.552V98.244C357.665 89.4627 364.473 85.072 374.241 85.072C382.726 85.072 389.288 88.1307 393.925 94.248C398.661 100.365 401.029 109.64 401.029 122.072C401.029 134.504 398.464 143.68 393.333 149.6C388.301 155.52 380.704 158.48 370.541 158.48C365.805 158.48 362.253 157.888 359.885 156.704C357.517 155.52 355.593 153.695 354.113 151.228V189.56H373.205V192.224H318.445V189.56H326.585V89.216H318.741V86.552H353.817ZM408.857 158.48V131.988H410.633C413.198 140.572 416.651 146.591 420.993 150.044C425.334 153.497 430.761 155.224 437.273 155.224C447.337 155.224 452.369 152.017 452.369 145.604C452.369 142.841 451.135 140.769 448.669 139.388C444.821 137.217 439.887 135.54 433.869 134.356C427.159 132.58 421.535 130.212 416.997 127.252C411.57 123.7 408.857 118.076 408.857 110.38C408.857 102.684 411.225 96.5667 415.961 92.028C420.697 87.3907 427.011 85.072 434.905 85.072C439.739 85.072 444.722 86.2067 449.853 88.476C451.727 89.2653 453.158 89.66 454.145 89.66C455.131 89.66 455.97 89.3147 456.661 88.624C457.351 87.9333 458.19 86.6507 459.177 84.776H460.805V107.42H459.029C453.997 94.5933 446.202 88.18 435.645 88.18C431.007 88.18 427.554 89.0187 425.285 90.696C423.015 92.2747 421.881 94.2973 421.881 96.764C421.881 98.244 422.226 99.428 422.917 100.316C423.607 101.105 424.15 101.697 424.545 102.092C424.939 102.487 425.581 102.931 426.469 103.424C427.357 103.819 428.097 104.164 428.689 104.46C429.281 104.657 430.169 104.953 431.353 105.348C432.635 105.743 433.573 105.989 434.165 106.088C440.874 107.765 445.709 109.245 448.669 110.528C451.629 111.712 454.441 113.192 457.105 114.968C462.531 118.717 465.245 124.785 465.245 133.172C465.245 141.46 462.778 147.775 457.845 152.116C452.911 156.359 446.153 158.48 437.569 158.48C431.451 158.48 425.531 157.049 419.809 154.188C418.625 153.399 417.687 153.004 416.997 153.004C414.826 153.004 412.705 154.829 410.633 158.48H408.857ZM555.048 157H521.304L519.676 146.196C518.098 150.143 515.73 153.201 512.572 155.372C509.514 157.444 504.926 158.48 498.808 158.48C483.515 158.48 475.868 150.241 475.868 133.764V89.216H467.58V86.552H503.396V137.316C503.396 143.236 503.791 147.133 504.58 149.008C505.468 150.883 507.146 151.82 509.612 151.82C512.178 151.82 514.447 150.291 516.42 147.232C518.394 144.173 519.38 139.931 519.38 134.504V89.216H512.572V86.552H546.908V154.336H555.048V157ZM557.486 46H593.746V154.336H602.034V157H558.078V154.336H566.218V48.664H557.486V46ZM643.83 158.48C631.102 158.48 621.531 155.224 615.118 148.712C608.803 142.101 605.646 132.975 605.646 121.332C605.646 109.591 609.198 100.612 616.302 94.396C623.504 88.18 632.631 85.072 643.682 85.072C666.079 85.072 676.834 96.32 675.946 118.816H634.21V124.588C634.21 134.257 635.443 141.559 637.91 146.492C640.376 151.425 644.668 153.892 650.786 153.892C662.231 153.892 669.73 147.775 673.282 135.54L675.946 135.984C674.071 143.088 670.667 148.613 665.734 152.56C660.899 156.507 653.598 158.48 643.83 158.48ZM634.358 115.856H649.602V108.604C649.602 100.612 649.108 95.1853 648.122 92.324C647.234 89.364 645.359 87.884 642.498 87.884C639.735 87.884 637.663 89.4627 636.282 92.62C634.999 95.6787 634.358 101.007 634.358 108.604V115.856ZM683.177 158.48V131.988H684.953C687.518 140.572 690.972 146.591 695.313 150.044C699.654 153.497 705.081 155.224 711.593 155.224C721.657 155.224 726.689 152.017 726.689 145.604C726.689 142.841 725.456 140.769 722.989 139.388C719.141 137.217 714.208 135.54 708.189 134.356C701.48 132.58 695.856 130.212 691.317 127.252C685.89 123.7 683.177 118.076 683.177 110.38C683.177 102.684 685.545 96.5667 690.281 92.028C695.017 87.3907 701.332 85.072 709.225 85.072C714.06 85.072 719.042 86.2067 724.173 88.476C726.048 89.2653 727.478 89.66 728.465 89.66C729.452 89.66 730.29 89.3147 730.981 88.624C731.672 87.9333 732.51 86.6507 733.497 84.776H735.125V107.42H733.349C728.317 94.5933 720.522 88.18 709.965 88.18C705.328 88.18 701.874 89.0187 699.605 90.696C697.336 92.2747 696.201 94.2973 696.201 96.764C696.201 98.244 696.546 99.428 697.237 100.316C697.928 101.105 698.47 101.697 698.865 102.092C699.26 102.487 699.901 102.931 700.789 103.424C701.677 103.819 702.417 104.164 703.009 104.46C703.601 104.657 704.489 104.953 705.673 105.348C706.956 105.743 707.893 105.989 708.485 106.088C715.194 107.765 720.029 109.245 722.989 110.528C725.949 111.712 728.761 113.192 731.425 114.968C736.852 118.717 739.565 124.785 739.565 133.172C739.565 141.46 737.098 147.775 732.165 152.116C727.232 156.359 720.473 158.48 711.889 158.48C705.772 158.48 699.852 157.049 694.129 154.188C692.945 153.399 692.008 153.004 691.317 153.004C689.146 153.004 687.025 154.829 684.953 158.48H683.177Z" fill="#EDEEF0"/>
<path d="M88.1788 68.8232C98.6251 79.2697 98.6251 96.207 88.1788 106.653L78.7177 116.108L56.6535 138.179C46.2067 148.625 29.2697 148.625 18.8232 138.179C8.37666 127.732 8.37666 110.795 18.8232 100.348L50.3485 68.8232C60.7948 58.3766 77.732 58.3766 88.1788 68.8232ZM66.1109 116.111L40.8908 90.8908L25.1282 106.653C18.1639 113.618 18.1639 124.909 25.1282 131.874C32.0925 138.838 43.384 138.838 50.3485 131.874L66.1109 116.111Z" fill="#E5484D"/>
</svg>
