<svg width="1169" height="192" viewBox="0 0 1169 192" fill="none" xmlns="http://www.w3.org/2000/svg">
<path d="M165.095 61.8114C177.706 70.5008 180.897 87.7853 172.222 100.417L142.657 143.467C133.982 156.099 116.727 159.295 104.116 150.606C91.5053 141.916 88.3148 124.632 96.9895 112L105.472 99.6487L105.47 99.6477C108.45 95.09 107.263 88.9595 102.758 85.8558C98.2542 82.7525 92.1145 83.8347 88.9307 88.2513L88.9273 88.2489L50.6824 143.939C41.985 156.603 24.6845 159.808 12.0411 151.096C-0.602177 142.384 -3.80131 125.055 4.89586 112.39L64.1824 26.0607C72.8798 13.3964 90.18 10.1926 102.823 18.9041C115.467 27.6159 118.666 44.9447 109.969 57.6093L108.248 60.1149L108.269 60.1291C108.125 60.3109 107.985 60.4992 107.852 60.6933C104.71 65.2694 105.866 71.5312 110.434 74.6792C114.991 77.8187 121.221 76.6745 124.371 72.1283L124.414 72.0661C124.541 71.8805 124.661 71.6919 124.773 71.5011L124.793 71.5147L126.554 68.9504C135.229 56.3186 152.484 53.1224 165.095 61.8114Z" fill="#DA3633"/>
<path d="M223.06 101.752C235.597 110.391 238.769 127.574 230.145 140.132C221.521 152.69 204.366 155.868 191.829 147.229C179.292 138.591 176.119 121.407 184.744 108.849C193.368 96.2909 210.523 93.1135 223.06 101.752Z" fill="#DA3633"/>
<path d="M335.495 154C323.495 154 312.962 151.867 303.895 147.6C294.962 143.2 287.428 137.4 281.295 130.2C275.295 122.867 270.762 114.733 267.695 105.8C264.762 96.7333 263.295 87.4667 263.295 78C263.295 68.5333 264.762 59.2667 267.695 50.2C270.762 41.1333 275.295 33 281.295 25.8C287.428 18.4667 294.962 12.6667 303.895 8.4C312.962 4.13333 323.495 2 335.495 2C345.495 2 354.095 3.26667 361.295 5.80001C368.495 8.33334 374.495 11.6 379.295 15.6C384.095 19.6 387.895 23.8667 390.695 28.4C393.628 32.9333 395.828 37.2 397.295 41.2C398.762 45.2 399.695 48.4667 400.095 51C400.628 53.5333 400.895 54.8 400.895 54.8H373.895C373.895 54.8 373.628 53.8667 373.095 52C372.695 50.1333 371.762 47.8 370.295 45C368.962 42.0667 366.895 39.2 364.095 36.4C361.295 33.6 357.562 31.2667 352.895 29.4C348.362 27.5333 342.695 26.6 335.895 26.6C328.428 26.6 321.895 28.0667 316.295 31C310.695 33.8 306.028 37.6667 302.295 42.6C298.562 47.5333 295.762 53.0667 293.895 59.2C292.162 65.3333 291.295 71.6 291.295 78C291.295 84.4 292.162 90.6667 293.895 96.8C295.762 102.8 298.562 108.267 302.295 113.2C306.028 118.133 310.695 122.067 316.295 125C321.895 127.933 328.428 129.4 335.895 129.4C342.695 129.4 348.362 128.467 352.895 126.6C357.562 124.6 361.295 122.2 364.095 119.4C366.895 116.6 368.962 113.8 370.295 111C371.762 108.2 372.695 105.867 373.095 104C373.628 102 373.895 101 373.895 101H400.895C400.895 101 400.628 102.267 400.095 104.8C399.695 107.333 398.762 110.667 397.295 114.8C395.828 118.8 393.628 123.067 390.695 127.6C387.895 132 384.095 136.267 379.295 140.4C374.495 144.4 368.495 147.667 361.295 150.2C354.095 152.733 345.495 154 335.495 154Z" fill="#141414"/>
<path d="M467.759 44C474.559 44 480.159 45.1333 484.559 47.4C488.959 49.5333 492.426 51.9333 494.959 54.6C497.492 57.1333 499.226 59.2 500.159 60.8H501.359V46H527.959V152H501.359V137.2H500.159C499.226 138.8 497.492 140.933 494.959 143.6C492.426 146.267 488.959 148.667 484.559 150.8C480.159 152.933 474.559 154 467.759 154C459.892 154 453.026 152.467 447.159 149.4C441.292 146.2 436.359 142 432.359 136.8C428.492 131.467 425.559 125.533 423.559 119C421.692 112.467 420.759 105.8 420.759 99C420.759 92.2 421.692 85.5333 423.559 79C425.559 72.4667 428.492 66.6 432.359 61.4C436.359 56.0667 441.292 51.8667 447.159 48.8C453.026 45.6 459.892 44 467.759 44ZM474.759 65.8C468.759 65.8 463.692 67.4667 459.559 70.8C455.559 74 452.559 78.1333 450.559 83.2C448.559 88.2667 447.559 93.5333 447.559 99C447.559 104.467 448.559 109.733 450.559 114.8C452.559 119.867 455.559 124.067 459.559 127.4C463.692 130.6 468.759 132.2 474.759 132.2C480.759 132.2 485.759 130.6 489.759 127.4C493.759 124.067 496.759 119.867 498.759 114.8C500.759 109.733 501.759 104.467 501.759 99C501.759 93.5333 500.759 88.2667 498.759 83.2C496.759 78.1333 493.759 74 489.759 70.8C485.759 67.4667 480.759 65.8 474.759 65.8Z" fill="#141414"/>
<path d="M555.218 191.2V46H581.818V60.8H583.218C584.152 59.2 585.818 57.0667 588.218 54.4C590.752 51.7333 594.218 49.3333 598.618 47.2C603.018 45.0667 608.618 44 615.418 44C623.418 44 630.352 45.6 636.218 48.8C642.085 51.8667 646.952 56.0667 650.818 61.4C654.685 66.6 657.552 72.4667 659.418 79C661.418 85.5333 662.418 92.2 662.418 99C662.418 105.8 661.418 112.467 659.418 119C657.552 125.533 654.685 131.467 650.818 136.8C646.952 142 642.085 146.2 636.218 149.4C630.352 152.467 623.418 154 615.418 154C608.618 154 603.018 152.933 598.618 150.8C594.218 148.533 590.752 146.067 588.218 143.4C585.818 140.733 584.152 138.667 583.218 137.2H581.818V191.2H555.218ZM581.418 99C581.418 104.467 582.418 109.733 584.418 114.8C586.418 119.867 589.418 124.067 593.418 127.4C597.418 130.6 602.418 132.2 608.418 132.2C614.552 132.2 619.618 130.6 623.618 127.4C627.618 124.067 630.618 119.867 632.618 114.8C634.618 109.733 635.618 104.467 635.618 99C635.618 93.5333 634.618 88.2667 632.618 83.2C630.618 78.1333 627.618 74 623.618 70.8C619.618 67.4667 614.552 65.8 608.418 65.8C602.418 65.8 597.418 67.4667 593.418 70.8C589.418 74 586.418 78.1333 584.418 83.2C582.418 88.2667 581.418 93.5333 581.418 99Z" fill="#141414"/>
<path d="M728.44 154C719.774 154 712.64 152.867 707.04 150.6C701.44 148.2 696.974 145.267 693.64 141.8C690.44 138.2 688.04 134.667 686.44 131.2C684.84 127.733 683.774 124.867 683.24 122.6C682.84 120.2 682.64 119 682.64 119H707.84C707.84 119 708.04 119.733 708.44 121.2C708.974 122.667 709.907 124.4 711.24 126.4C712.707 128.267 714.907 129.933 717.84 131.4C720.774 132.867 724.64 133.6 729.44 133.6C735.174 133.6 739.307 132.4 741.84 130C744.374 127.467 745.64 124.667 745.64 121.6C745.64 118.667 744.507 116.333 742.24 114.6C740.107 112.733 736.907 111.333 732.64 110.4L718.04 107.4C712.174 106.2 706.707 104.467 701.64 102.2C696.574 99.8 692.44 96.6 689.24 92.6C686.04 88.4667 684.44 83.2 684.44 76.8C684.44 67.3333 688.04 59.5333 695.24 53.4C702.44 47.1333 712.24 44 724.64 44C732.507 44 738.974 45.0667 744.04 47.2C749.24 49.3333 753.374 52 756.44 55.2C759.64 58.4 761.974 61.6 763.44 64.8C765.04 68 766.04 70.7333 766.44 73C766.974 75.1333 767.24 76.2 767.24 76.2H742.84C742.84 76.2 742.64 75.6 742.24 74.4C741.84 73.0667 740.974 71.6 739.64 70C738.44 68.4 736.574 67 734.04 65.8C731.64 64.4667 728.374 63.8 724.24 63.8C718.64 63.8 714.64 65 712.24 67.4C709.974 69.8 708.84 72.3333 708.84 75C708.84 77.9333 710.107 80.2 712.64 81.8C715.174 83.4 718.44 84.6 722.44 85.4L736.24 88.4C746.107 90.4 754.174 93.8667 760.44 98.8C766.84 103.733 770.04 110.867 770.04 120.2C770.04 126.467 768.374 132.2 765.04 137.4C761.84 142.467 757.107 146.533 750.84 149.6C744.707 152.533 737.24 154 728.44 154Z" fill="#141414"/>
<path d="M824.709 154C813.642 154 805.242 150.6 799.509 143.8C793.909 137 791.109 128.267 791.109 117.6V46H817.509V113.2C817.509 118.933 819.042 123.533 822.109 127C825.176 130.333 829.509 132 835.109 132C840.042 132 844.042 130.733 847.109 128.2C850.176 125.667 852.376 122.4 853.709 118.4C855.176 114.4 855.909 110.267 855.909 106V46H882.509V152H855.909V136.8H854.709C853.376 139.2 851.442 141.733 848.909 144.4C846.509 147.067 843.309 149.333 839.309 151.2C835.442 153.067 830.576 154 824.709 154Z" fill="#141414"/>
<path d="M909.32 152L909.52 0H935.92V152H909.32Z" fill="#141414"/>
<path d="M1013.21 154C1004.14 154 996.274 152.467 989.607 149.4C983.074 146.2 977.607 142 973.207 136.8C968.941 131.467 965.741 125.533 963.607 119C961.474 112.467 960.407 105.8 960.407 99C960.407 92.2 961.407 85.6 963.407 79.2C965.541 72.6667 968.674 66.7333 972.807 61.4C977.074 56.0667 982.474 51.8667 989.007 48.8C995.541 45.6 1003.27 44 1012.21 44C1021.81 44 1030.27 46.1333 1037.61 50.4C1044.94 54.6667 1050.67 60.9333 1054.81 69.2C1058.94 77.3333 1061.01 87.4667 1061.01 99.6V106.4H987.207C987.607 113.6 990.074 119.867 994.607 125.2C999.141 130.4 1005.34 133 1013.21 133C1017.74 133 1021.47 132.267 1024.41 130.8C1027.34 129.333 1029.61 127.667 1031.21 125.8C1032.81 123.8 1033.94 122.133 1034.61 120.8C1035.27 119.333 1035.61 118.6 1035.61 118.6H1060.21C1060.21 118.6 1059.87 119.8 1059.21 122.2C1058.54 124.467 1057.27 127.4 1055.41 131C1053.67 134.467 1051.07 138 1047.61 141.6C1044.14 145.067 1039.61 148 1034.01 150.4C1028.41 152.8 1021.47 154 1013.21 154ZM987.207 89H1035.41C1035.01 80.7333 1032.54 74.6 1028.01 70.6C1023.47 66.6 1018.14 64.6 1012.01 64.6C1005.21 64.6 999.541 66.8 995.007 71.2C990.474 75.4667 987.874 81.4 987.207 89Z" fill="#141414"/>
<path d="M1127.07 154C1118.41 154 1111.27 152.867 1105.67 150.6C1100.07 148.2 1095.61 145.267 1092.27 141.8C1089.07 138.2 1086.67 134.667 1085.07 131.2C1083.47 127.733 1082.41 124.867 1081.87 122.6C1081.47 120.2 1081.27 119 1081.27 119H1106.47C1106.47 119 1106.67 119.733 1107.07 121.2C1107.61 122.667 1108.54 124.4 1109.87 126.4C1111.34 128.267 1113.54 129.933 1116.47 131.4C1119.41 132.867 1123.27 133.6 1128.07 133.6C1133.81 133.6 1137.94 132.4 1140.47 130C1143.01 127.467 1144.27 124.667 1144.27 121.6C1144.27 118.667 1143.14 116.333 1140.87 114.6C1138.74 112.733 1135.54 111.333 1131.27 110.4L1116.67 107.4C1110.81 106.2 1105.34 104.467 1100.27 102.2C1095.21 99.8 1091.07 96.6 1087.87 92.6C1084.67 88.4667 1083.07 83.2 1083.07 76.8C1083.07 67.3333 1086.67 59.5333 1093.87 53.4C1101.07 47.1333 1110.87 44 1123.27 44C1131.14 44 1137.61 45.0667 1142.67 47.2C1147.87 49.3333 1152.01 52 1155.07 55.2C1158.27 58.4 1160.61 61.6 1162.07 64.8C1163.67 68 1164.67 70.7333 1165.07 73C1165.61 75.1333 1165.87 76.2 1165.87 76.2H1141.47C1141.47 76.2 1141.27 75.6 1140.87 74.4C1140.47 73.0667 1139.61 71.6 1138.27 70C1137.07 68.4 1135.21 67 1132.67 65.8C1130.27 64.4667 1127.01 63.8 1122.87 63.8C1117.27 63.8 1113.27 65 1110.87 67.4C1108.61 69.8 1107.47 72.3333 1107.47 75C1107.47 77.9333 1108.74 80.2 1111.27 81.8C1113.81 83.4 1117.07 84.6 1121.07 85.4L1134.87 88.4C1144.74 90.4 1152.81 93.8667 1159.07 98.8C1165.47 103.733 1168.67 110.867 1168.67 120.2C1168.67 126.467 1167.01 132.2 1163.67 137.4C1160.47 142.467 1155.74 146.533 1149.47 149.6C1143.34 152.533 1135.87 154 1127.07 154Z" fill="#141414"/>
</svg>
