<svg width="1732" height="951" viewBox="0 0 1732 951" fill="none" xmlns="http://www.w3.org/2000/svg">
<rect width="1732" height="951" fill="#D9D9D9"/>
<path d="M447.095 441.811C459.706 450.501 462.897 467.785 454.222 480.417L424.657 523.467C415.982 536.099 398.727 539.295 386.116 530.606C373.505 521.916 370.315 504.632 378.989 492L387.472 479.649L387.47 479.648C390.45 475.09 389.263 468.959 384.758 465.856C380.254 462.753 374.115 463.835 370.931 468.251L370.927 468.249L332.682 523.939C323.985 536.603 306.685 539.808 294.041 531.096C281.398 522.384 278.199 505.055 286.896 492.39L346.182 406.061C354.88 393.396 372.18 390.193 384.823 398.904C397.467 407.616 400.666 424.945 391.969 437.609L390.248 440.115L390.269 440.129C390.125 440.311 389.985 440.499 389.852 440.693C386.71 445.269 387.866 451.531 392.434 454.679C396.991 457.819 403.221 456.674 406.371 452.128L406.414 452.066C406.541 451.881 406.661 451.692 406.773 451.501L406.793 451.515L408.554 448.95C417.229 436.319 434.484 433.122 447.095 441.811Z" fill="#DA3633"/>
<path d="M505.06 481.752C517.597 490.391 520.769 507.574 512.145 520.132C503.521 532.69 486.366 535.868 473.829 527.229C461.292 518.591 458.119 501.407 466.744 488.849C475.368 476.291 492.523 473.113 505.06 481.752Z" fill="#DA3633"/>
<path d="M617.495 534C605.495 534 594.962 531.867 585.895 527.6C576.962 523.2 569.428 517.4 563.295 510.2C557.295 502.867 552.762 494.733 549.695 485.8C546.762 476.733 545.295 467.467 545.295 458C545.295 448.533 546.762 439.267 549.695 430.2C552.762 421.133 557.295 413 563.295 405.8C569.428 398.467 576.962 392.667 585.895 388.4C594.962 384.133 605.495 382 617.495 382C627.495 382 636.095 383.267 643.295 385.8C650.495 388.333 656.495 391.6 661.295 395.6C666.095 399.6 669.895 403.867 672.695 408.4C675.628 412.933 677.828 417.2 679.295 421.2C680.762 425.2 681.695 428.467 682.095 431C682.628 433.533 682.895 434.8 682.895 434.8H655.895C655.895 434.8 655.628 433.867 655.095 432C654.695 430.133 653.762 427.8 652.295 425C650.962 422.067 648.895 419.2 646.095 416.4C643.295 413.6 639.562 411.267 634.895 409.4C630.362 407.533 624.695 406.6 617.895 406.6C610.428 406.6 603.895 408.067 598.295 411C592.695 413.8 588.028 417.667 584.295 422.6C580.562 427.533 577.762 433.067 575.895 439.2C574.162 445.333 573.295 451.6 573.295 458C573.295 464.4 574.162 470.667 575.895 476.8C577.762 482.8 580.562 488.267 584.295 493.2C588.028 498.133 592.695 502.067 598.295 505C603.895 507.933 610.428 509.4 617.895 509.4C624.695 509.4 630.362 508.467 634.895 506.6C639.562 504.6 643.295 502.2 646.095 499.4C648.895 496.6 650.962 493.8 652.295 491C653.762 488.2 654.695 485.867 655.095 484C655.628 482 655.895 481 655.895 481H682.895C682.895 481 682.628 482.267 682.095 484.8C681.695 487.333 680.762 490.667 679.295 494.8C677.828 498.8 675.628 503.067 672.695 507.6C669.895 512 666.095 516.267 661.295 520.4C656.495 524.4 650.495 527.667 643.295 530.2C636.095 532.733 627.495 534 617.495 534Z" fill="#141414"/>
<path d="M749.759 424C756.559 424 762.159 425.133 766.559 427.4C770.959 429.533 774.426 431.933 776.959 434.6C779.492 437.133 781.226 439.2 782.159 440.8H783.359V426H809.959V532H783.359V517.2H782.159C781.226 518.8 779.492 520.933 776.959 523.6C774.426 526.267 770.959 528.667 766.559 530.8C762.159 532.933 756.559 534 749.759 534C741.892 534 735.026 532.467 729.159 529.4C723.292 526.2 718.359 522 714.359 516.8C710.492 511.467 707.559 505.533 705.559 499C703.692 492.467 702.759 485.8 702.759 479C702.759 472.2 703.692 465.533 705.559 459C707.559 452.467 710.492 446.6 714.359 441.4C718.359 436.067 723.292 431.867 729.159 428.8C735.026 425.6 741.892 424 749.759 424ZM756.759 445.8C750.759 445.8 745.692 447.467 741.559 450.8C737.559 454 734.559 458.133 732.559 463.2C730.559 468.267 729.559 473.533 729.559 479C729.559 484.467 730.559 489.733 732.559 494.8C734.559 499.867 737.559 504.067 741.559 507.4C745.692 510.6 750.759 512.2 756.759 512.2C762.759 512.2 767.759 510.6 771.759 507.4C775.759 504.067 778.759 499.867 780.759 494.8C782.759 489.733 783.759 484.467 783.759 479C783.759 473.533 782.759 468.267 780.759 463.2C778.759 458.133 775.759 454 771.759 450.8C767.759 447.467 762.759 445.8 756.759 445.8Z" fill="#141414"/>
<path d="M837.218 571.2V426H863.818V440.8H865.218C866.152 439.2 867.818 437.067 870.218 434.4C872.752 431.733 876.218 429.333 880.618 427.2C885.018 425.067 890.618 424 897.418 424C905.418 424 912.352 425.6 918.218 428.8C924.085 431.867 928.952 436.067 932.818 441.4C936.685 446.6 939.552 452.467 941.418 459C943.418 465.533 944.418 472.2 944.418 479C944.418 485.8 943.418 492.467 941.418 499C939.552 505.533 936.685 511.467 932.818 516.8C928.952 522 924.085 526.2 918.218 529.4C912.352 532.467 905.418 534 897.418 534C890.618 534 885.018 532.933 880.618 530.8C876.218 528.533 872.752 526.067 870.218 523.4C867.818 520.733 866.152 518.667 865.218 517.2H863.818V571.2H837.218ZM863.418 479C863.418 484.467 864.418 489.733 866.418 494.8C868.418 499.867 871.418 504.067 875.418 507.4C879.418 510.6 884.418 512.2 890.418 512.2C896.552 512.2 901.618 510.6 905.618 507.4C909.618 504.067 912.618 499.867 914.618 494.8C916.618 489.733 917.618 484.467 917.618 479C917.618 473.533 916.618 468.267 914.618 463.2C912.618 458.133 909.618 454 905.618 450.8C901.618 447.467 896.552 445.8 890.418 445.8C884.418 445.8 879.418 447.467 875.418 450.8C871.418 454 868.418 458.133 866.418 463.2C864.418 468.267 863.418 473.533 863.418 479Z" fill="#141414"/>
<path d="M1010.44 534C1001.77 534 994.64 532.867 989.04 530.6C983.44 528.2 978.974 525.267 975.64 521.8C972.44 518.2 970.04 514.667 968.44 511.2C966.84 507.733 965.774 504.867 965.24 502.6C964.84 500.2 964.64 499 964.64 499H989.84C989.84 499 990.04 499.733 990.44 501.2C990.974 502.667 991.907 504.4 993.24 506.4C994.707 508.267 996.907 509.933 999.84 511.4C1002.77 512.867 1006.64 513.6 1011.44 513.6C1017.17 513.6 1021.31 512.4 1023.84 510C1026.37 507.467 1027.64 504.667 1027.64 501.6C1027.64 498.667 1026.51 496.333 1024.24 494.6C1022.11 492.733 1018.91 491.333 1014.64 490.4L1000.04 487.4C994.174 486.2 988.707 484.467 983.64 482.2C978.574 479.8 974.44 476.6 971.24 472.6C968.04 468.467 966.44 463.2 966.44 456.8C966.44 447.333 970.04 439.533 977.24 433.4C984.44 427.133 994.24 424 1006.64 424C1014.51 424 1020.97 425.067 1026.04 427.2C1031.24 429.333 1035.37 432 1038.44 435.2C1041.64 438.4 1043.97 441.6 1045.44 444.8C1047.04 448 1048.04 450.733 1048.44 453C1048.97 455.133 1049.24 456.2 1049.24 456.2H1024.84C1024.84 456.2 1024.64 455.6 1024.24 454.4C1023.84 453.067 1022.97 451.6 1021.64 450C1020.44 448.4 1018.57 447 1016.04 445.8C1013.64 444.467 1010.37 443.8 1006.24 443.8C1000.64 443.8 996.64 445 994.24 447.4C991.974 449.8 990.84 452.333 990.84 455C990.84 457.933 992.107 460.2 994.64 461.8C997.174 463.4 1000.44 464.6 1004.44 465.4L1018.24 468.4C1028.11 470.4 1036.17 473.867 1042.44 478.8C1048.84 483.733 1052.04 490.867 1052.04 500.2C1052.04 506.467 1050.37 512.2 1047.04 517.4C1043.84 522.467 1039.11 526.533 1032.84 529.6C1026.71 532.533 1019.24 534 1010.44 534Z" fill="#141414"/>
<path d="M1106.71 534C1095.64 534 1087.24 530.6 1081.51 523.8C1075.91 517 1073.11 508.267 1073.11 497.6V426H1099.51V493.2C1099.51 498.933 1101.04 503.533 1104.11 507C1107.18 510.333 1111.51 512 1117.11 512C1122.04 512 1126.04 510.733 1129.11 508.2C1132.18 505.667 1134.38 502.4 1135.71 498.4C1137.18 494.4 1137.91 490.267 1137.91 486V426H1164.51V532H1137.91V516.8H1136.71C1135.38 519.2 1133.44 521.733 1130.91 524.4C1128.51 527.067 1125.31 529.333 1121.31 531.2C1117.44 533.067 1112.58 534 1106.71 534Z" fill="#141414"/>
<path d="M1191.32 532L1191.52 380H1217.92V532H1191.32Z" fill="#141414"/>
<path d="M1295.21 534C1286.14 534 1278.27 532.467 1271.61 529.4C1265.07 526.2 1259.61 522 1255.21 516.8C1250.94 511.467 1247.74 505.533 1245.61 499C1243.47 492.467 1242.41 485.8 1242.41 479C1242.41 472.2 1243.41 465.6 1245.41 459.2C1247.54 452.667 1250.67 446.733 1254.81 441.4C1259.07 436.067 1264.47 431.867 1271.01 428.8C1277.54 425.6 1285.27 424 1294.21 424C1303.81 424 1312.27 426.133 1319.61 430.4C1326.94 434.667 1332.67 440.933 1336.81 449.2C1340.94 457.333 1343.01 467.467 1343.01 479.6V486.4H1269.21C1269.61 493.6 1272.07 499.867 1276.61 505.2C1281.14 510.4 1287.34 513 1295.21 513C1299.74 513 1303.47 512.267 1306.41 510.8C1309.34 509.333 1311.61 507.667 1313.21 505.8C1314.81 503.8 1315.94 502.133 1316.61 500.8C1317.27 499.333 1317.61 498.6 1317.61 498.6H1342.21C1342.21 498.6 1341.87 499.8 1341.21 502.2C1340.54 504.467 1339.27 507.4 1337.41 511C1335.67 514.467 1333.07 518 1329.61 521.6C1326.14 525.067 1321.61 528 1316.01 530.4C1310.41 532.8 1303.47 534 1295.21 534ZM1269.21 469H1317.41C1317.01 460.733 1314.54 454.6 1310.01 450.6C1305.47 446.6 1300.14 444.6 1294.01 444.6C1287.21 444.6 1281.54 446.8 1277.01 451.2C1272.47 455.467 1269.87 461.4 1269.21 469Z" fill="#141414"/>
<path d="M1409.07 534C1400.41 534 1393.27 532.867 1387.67 530.6C1382.07 528.2 1377.61 525.267 1374.27 521.8C1371.07 518.2 1368.67 514.667 1367.07 511.2C1365.47 507.733 1364.41 504.867 1363.87 502.6C1363.47 500.2 1363.27 499 1363.27 499H1388.47C1388.47 499 1388.67 499.733 1389.07 501.2C1389.61 502.667 1390.54 504.4 1391.87 506.4C1393.34 508.267 1395.54 509.933 1398.47 511.4C1401.41 512.867 1405.27 513.6 1410.07 513.6C1415.81 513.6 1419.94 512.4 1422.47 510C1425.01 507.467 1426.27 504.667 1426.27 501.6C1426.27 498.667 1425.14 496.333 1422.87 494.6C1420.74 492.733 1417.54 491.333 1413.27 490.4L1398.67 487.4C1392.81 486.2 1387.34 484.467 1382.27 482.2C1377.21 479.8 1373.07 476.6 1369.87 472.6C1366.67 468.467 1365.07 463.2 1365.07 456.8C1365.07 447.333 1368.67 439.533 1375.87 433.4C1383.07 427.133 1392.87 424 1405.27 424C1413.14 424 1419.61 425.067 1424.67 427.2C1429.87 429.333 1434.01 432 1437.07 435.2C1440.27 438.4 1442.61 441.6 1444.07 444.8C1445.67 448 1446.67 450.733 1447.07 453C1447.61 455.133 1447.87 456.2 1447.87 456.2H1423.47C1423.47 456.2 1423.27 455.6 1422.87 454.4C1422.47 453.067 1421.61 451.6 1420.27 450C1419.07 448.4 1417.21 447 1414.67 445.8C1412.27 444.467 1409.01 443.8 1404.87 443.8C1399.27 443.8 1395.27 445 1392.87 447.4C1390.61 449.8 1389.47 452.333 1389.47 455C1389.47 457.933 1390.74 460.2 1393.27 461.8C1395.81 463.4 1399.07 464.6 1403.07 465.4L1416.87 468.4C1426.74 470.4 1434.81 473.867 1441.07 478.8C1447.47 483.733 1450.67 490.867 1450.67 500.2C1450.67 506.467 1449.01 512.2 1445.67 517.4C1442.47 522.467 1437.74 526.533 1431.47 529.6C1425.34 532.533 1417.87 534 1409.07 534Z" fill="#141414"/>
</svg>
