<svg width="400" height="400" viewBox="0 0 400 400" fill="none" xmlns="http://www.w3.org/2000/svg">
<rect width="400" height="400" rx="36" fill="#D9D9D9"/>
<path d="M144 210H257L224.926 241.657C220.809 245.721 215.257 248 209.472 248H106V238.528C106 232.744 108.279 227.191 112.343 223.074L144 191V210Z" fill="black"/>
<path d="M295 248H257V210H295V248Z" fill="black"/>
<path d="M295 162.472C295 168.256 292.721 173.809 288.657 177.926L257 210V191H144L176.074 159.343C180.191 155.279 185.744 153 191.528 153H295V162.472Z" fill="black"/>
<path d="M144 191H106V153H144V191Z" fill="black"/>
</svg>
